<?xml version="1.0" encoding="utf-8"?>
<!-- Generator: Adobe Illustrator 27.7.0, SVG Export Plug-In . SVG Version: 6.00 Build 0)  -->
<svg version="1.1" id="Layer_1" xmlns="http://www.w3.org/2000/svg" xmlns:xlink="http://www.w3.org/1999/xlink" x="0px" y="0px"
	 viewBox="0 0 288 72" style="enable-background:new 0 0 288 72;" xml:space="preserve">
<style type="text/css">
	.st0{fill:#256BA2;}
	.st1{fill:#00263E;}
</style>
<g>
	<g>
		<g>
			<path class="st0" d="M44.67,19.54c-3.34-2.45-7.45-3.9-11.9-3.9c-4.45,0-8.56,1.45-11.9,3.9c3.18,2.79,7.34,4.49,11.9,4.49
				S41.5,22.33,44.67,19.54z"/>
			<path class="st0" d="M32.78,10.11c5.8,0,11.15,1.93,15.46,5.18c1.23-2.04,2.06-4.34,2.4-6.81c-5.13-3.36-11.27-5.32-17.86-5.32
				c-6.59,0-12.73,1.96-17.86,5.32c0.34,2.46,1.17,4.77,2.4,6.81C21.63,12.04,26.98,10.11,32.78,10.11z"/>
			<path class="st0" d="M32.78,61.51c-5.8,0-11.15-1.93-15.46-5.18c-1.23,2.04-2.06,4.34-2.4,6.81c5.13,3.36,11.27,5.32,17.86,5.32
				c6.59,0,12.73-1.96,17.86-5.32c-0.34-2.46-1.17-4.77-2.4-6.81C43.93,59.58,38.58,61.51,32.78,61.51z"/>
			<path class="st0" d="M20.88,52.08c3.34,2.45,7.45,3.9,11.9,3.9s8.56-1.45,11.9-3.9c-3.18-2.79-7.34-4.49-11.9-4.49
				S24.06,49.29,20.88,52.08z"/>
			<path class="st0" d="M49.05,47.7c2.45-3.34,3.9-7.45,3.9-11.9c0-4.45-1.45-8.56-3.9-11.9c-2.79,3.18-4.49,7.34-4.49,11.9
				S46.26,44.53,49.05,47.7z"/>
			<path class="st0" d="M58.48,35.81c0,5.8-1.93,11.15-5.18,15.46c2.04,1.23,4.34,2.06,6.81,2.4c3.36-5.13,5.32-11.27,5.32-17.86
				s-1.96-12.73-5.32-17.86c-2.46,0.34-4.77,1.17-6.81,2.4C56.55,24.66,58.48,30.01,58.48,35.81z"/>
			<path class="st0" d="M7.08,35.81c0-5.8,1.93-11.15,5.18-15.46c-2.04-1.23-4.34-2.06-6.81-2.4c-3.36,5.13-5.32,11.27-5.32,17.86
				s1.96,12.73,5.32,17.86c2.46-0.34,4.77-1.17,6.81-2.4C9.01,46.96,7.08,41.61,7.08,35.81z"/>
			<path class="st0" d="M16.51,23.91c-2.45,3.34-3.9,7.45-3.9,11.9c0,4.45,1.45,8.56,3.9,11.9C19.3,44.53,21,40.37,21,35.81
				S19.3,27.09,16.51,23.91z"/>
		</g>
		<g>
			<path class="st1" d="M96.82,54.72c-11.23,0-19.07-8.51-19.07-18.86S85.69,16.9,96.92,16.9c11.23,0,19.07,8.51,19.07,18.86
				C115.99,46.1,108.05,54.72,96.82,54.72z M96.82,22.8c-7.26,0-12.33,5.8-12.33,12.95c0,7.16,5.17,13.06,12.43,13.06
				c7.26,0,12.33-5.8,12.33-12.95S104.08,22.8,96.82,22.8z"/>
			<path class="st1" d="M148.26,17.53h6.32v36.56h-5.38l-20.16-26.01v26.01h-6.32V17.53h5.95l19.59,25.28V17.53z"/>
			<path class="st1" d="M190.26,23.27h-20.69v9.51h18.33v5.75h-18.33v9.82h20.95v5.75h-27.37V17.53h27.11V23.27z"/>
		</g>
		<g>
			<rect x="205.8" y="17.51" class="st0" width="3.4" height="36.58"/>
			<polygon class="st0" points="245.77,48.01 221.69,17.65 221.58,17.51 218.52,17.51 218.52,54.1 221.82,54.1 221.82,22.93 
				246.41,53.96 246.52,54.1 249.06,54.1 249.06,17.51 245.77,17.51 			"/>
			<path class="st0" d="M285.81,45.84l-0.26,0.25c-3.94,3.89-7.45,5.48-12.08,5.48c-8.29,0-14.79-6.95-14.79-15.81
				c0-8.96,6.34-15.71,14.74-15.71c5.71,0,9.19,2.61,11.83,5.17l0.26,0.26l2.41-2.48l-0.28-0.26c-3.82-3.5-7.69-5.83-14.18-5.83
				c-10.26,0-18.29,8.33-18.29,18.96c0,10.75,7.82,18.86,18.19,18.86c7.1,0,11.31-3.21,14.5-6.35l0.27-0.26L285.81,45.84z"/>
		</g>
	</g>
</g>
</svg>
